<svg width="16" height="16" viewBox="0 0 16 16" fill="none" xmlns="http://www.w3.org/2000/svg">
<path d="M11.3992 14.2474L9.73301 11.3626C10.5454 10.7658 11.1091 9.83737 11.2251 8.77632H14.5658C14.4973 9.8711 14.1757 10.9351 13.6262 11.8844C13.0767 12.8338 12.3144 13.6427 11.3992 14.2474ZM8.76314 3.8275V0.486847C12.3276 0.702373 15.1792 3.55395 15.3947 7.11843H12.0541C11.9612 6.27753 11.5846 5.49337 10.9864 4.89515C10.3882 4.29694 9.60404 3.92037 8.76314 3.8275ZM3.78946 8.36185C3.78946 8.89237 3.89722 9.39803 4.10446 9.85395L1.21972 11.5201C0.725762 10.5408 0.470136 9.45868 0.473669 8.36185C0.473669 4.60671 3.40814 1.53961 7.10525 1.31579V4.65645C5.24012 4.86369 3.78946 6.43869 3.78946 8.36185ZM7.51972 15.4079C5.05775 15.4079 2.8942 14.1645 1.6342 12.2413L4.51893 10.5751C4.86406 11.0467 5.31583 11.43 5.83735 11.6936C6.35887 11.9572 6.93535 12.0938 7.51972 12.0921C8.05025 12.0921 8.55591 11.9843 9.01183 11.7771L10.678 14.6618C9.72472 15.1426 8.65538 15.4079 7.51972 15.4079Z" fill="white" fill-opacity="0.18"/>
</svg>
