<svg width="20" height="20" viewBox="0 0 20 20" fill="none" xmlns="http://www.w3.org/2000/svg">
<path d="M13.4124 16.2474L11.7462 13.3626C12.5586 12.7658 13.1222 11.8374 13.2383 10.7763H16.579C16.5105 11.8711 16.1889 12.9351 15.6394 13.8844C15.0899 14.8338 14.3276 15.6427 13.4124 16.2474ZM10.7763 5.8275V2.48685C14.3408 2.70237 17.1924 5.55395 17.4079 9.11843H14.0672C13.9744 8.27753 13.5978 7.49337 12.9996 6.89515C12.4014 6.29694 11.6172 5.92037 10.7763 5.8275ZM5.80264 10.3618C5.80264 10.8924 5.91041 11.398 6.11764 11.854L3.23291 13.5201C2.73895 12.5408 2.48332 11.4587 2.48685 10.3618C2.48685 6.60671 5.42133 3.53961 9.11843 3.31579V6.65645C7.2533 6.86369 5.80264 8.43869 5.80264 10.3618ZM9.53291 17.4079C7.07093 17.4079 4.90738 16.1645 3.64738 14.2413L6.53212 12.5751C6.87725 13.0467 7.32902 13.43 7.85054 13.6936C8.37206 13.9572 8.94854 14.0938 9.53291 14.0921C10.0634 14.0921 10.5691 13.9843 11.025 13.7771L12.6912 16.6618C11.7379 17.1426 10.6686 17.4079 9.53291 17.4079Z" fill="white" fill-opacity="0.18"/>
</svg>
